<mxfile host="app.diagrams.net" modified="2023-07-30T15:38:52.857Z" agent="Mozilla/5.0 (Windows NT 10.0; Win64; x64; rv:109.0) Gecko/20100101 Firefox/115.0" etag="4MfUIS4--sOjd__eXxQ_" version="21.6.5" type="google">
  <diagram name="Page-1" id="2OcgDQb-sQnMSFwB0Bnz">
    <mxGraphModel grid="1" page="1" gridSize="10" guides="1" tooltips="1" connect="1" arrows="1" fold="1" pageScale="1" pageWidth="850" pageHeight="1100" math="0" shadow="0">
      <root>
        <mxCell id="0" />
        <mxCell id="1" parent="0" />
        <mxCell id="BUFua6Qd4tEus71I5K5y-1" value="Customer" style="swimlane;fontStyle=1;align=center;verticalAlign=top;childLayout=stackLayout;horizontal=1;startSize=26;horizontalStack=0;resizeParent=1;resizeParentMax=0;resizeLast=0;collapsible=1;marginBottom=0;whiteSpace=wrap;html=1;" vertex="1" parent="1">
          <mxGeometry x="50" y="420" width="220" height="232" as="geometry" />
        </mxCell>
        <mxCell id="BUFua6Qd4tEus71I5K5y-2" value="- private idNumber: int" style="text;strokeColor=none;fillColor=none;align=left;verticalAlign=top;spacingLeft=4;spacingRight=4;overflow=hidden;rotatable=0;points=[[0,0.5],[1,0.5]];portConstraint=eastwest;whiteSpace=wrap;html=1;" vertex="1" parent="BUFua6Qd4tEus71I5K5y-1">
          <mxGeometry y="26" width="220" height="26" as="geometry" />
        </mxCell>
        <mxCell id="BUFua6Qd4tEus71I5K5y-31" value="- private date: datetime" style="text;strokeColor=none;fillColor=none;align=left;verticalAlign=top;spacingLeft=4;spacingRight=4;overflow=hidden;rotatable=0;points=[[0,0.5],[1,0.5]];portConstraint=eastwest;whiteSpace=wrap;html=1;" vertex="1" parent="BUFua6Qd4tEus71I5K5y-1">
          <mxGeometry y="52" width="220" height="26" as="geometry" />
        </mxCell>
        <mxCell id="BUFua6Qd4tEus71I5K5y-32" value="- private licenseNumber: int" style="text;strokeColor=none;fillColor=none;align=left;verticalAlign=top;spacingLeft=4;spacingRight=4;overflow=hidden;rotatable=0;points=[[0,0.5],[1,0.5]];portConstraint=eastwest;whiteSpace=wrap;html=1;" vertex="1" parent="BUFua6Qd4tEus71I5K5y-1">
          <mxGeometry y="78" width="220" height="26" as="geometry" />
        </mxCell>
        <mxCell id="BUFua6Qd4tEus71I5K5y-3" value="" style="line;strokeWidth=1;fillColor=none;align=left;verticalAlign=middle;spacingTop=-1;spacingLeft=3;spacingRight=3;rotatable=0;labelPosition=right;points=[];portConstraint=eastwest;strokeColor=inherit;" vertex="1" parent="BUFua6Qd4tEus71I5K5y-1">
          <mxGeometry y="104" width="220" height="8" as="geometry" />
        </mxCell>
        <mxCell id="BUFua6Qd4tEus71I5K5y-28" value="- private updateCustomer(data: {idNumber: int, date: datetime, licenseNumber: int}): void" style="text;strokeColor=none;fillColor=none;align=left;verticalAlign=top;spacingLeft=4;spacingRight=4;overflow=hidden;rotatable=0;points=[[0,0.5],[1,0.5]];portConstraint=eastwest;whiteSpace=wrap;html=1;" vertex="1" parent="BUFua6Qd4tEus71I5K5y-1">
          <mxGeometry y="112" width="220" height="50" as="geometry" />
        </mxCell>
        <mxCell id="BUFua6Qd4tEus71I5K5y-29" value="+ public getCustomerData(): {name: string, address: string, email: string, phoneNumber: string, idNumber: int, date: datetime, licenseNumber: int}" style="text;strokeColor=none;fillColor=none;align=left;verticalAlign=top;spacingLeft=4;spacingRight=4;overflow=hidden;rotatable=0;points=[[0,0.5],[1,0.5]];portConstraint=eastwest;whiteSpace=wrap;html=1;" vertex="1" parent="BUFua6Qd4tEus71I5K5y-1">
          <mxGeometry y="162" width="220" height="70" as="geometry" />
        </mxCell>
        <mxCell id="BUFua6Qd4tEus71I5K5y-5" value="CustomerDescription" style="swimlane;fontStyle=1;align=center;verticalAlign=top;childLayout=stackLayout;horizontal=1;startSize=26;horizontalStack=0;resizeParent=1;resizeParentMax=0;resizeLast=0;collapsible=1;marginBottom=0;whiteSpace=wrap;html=1;" vertex="1" parent="1">
          <mxGeometry x="500" y="420" width="180" height="378" as="geometry" />
        </mxCell>
        <mxCell id="BUFua6Qd4tEus71I5K5y-6" value="- private name: string" style="text;strokeColor=none;fillColor=none;align=left;verticalAlign=top;spacingLeft=4;spacingRight=4;overflow=hidden;rotatable=0;points=[[0,0.5],[1,0.5]];portConstraint=eastwest;whiteSpace=wrap;html=1;" vertex="1" parent="BUFua6Qd4tEus71I5K5y-5">
          <mxGeometry y="26" width="180" height="26" as="geometry" />
        </mxCell>
        <mxCell id="BUFua6Qd4tEus71I5K5y-35" value="- private address: string" style="text;strokeColor=none;fillColor=none;align=left;verticalAlign=top;spacingLeft=4;spacingRight=4;overflow=hidden;rotatable=0;points=[[0,0.5],[1,0.5]];portConstraint=eastwest;whiteSpace=wrap;html=1;" vertex="1" parent="BUFua6Qd4tEus71I5K5y-5">
          <mxGeometry y="52" width="180" height="26" as="geometry" />
        </mxCell>
        <mxCell id="BUFua6Qd4tEus71I5K5y-37" value="- private phoneNumber: string" style="text;strokeColor=none;fillColor=none;align=left;verticalAlign=top;spacingLeft=4;spacingRight=4;overflow=hidden;rotatable=0;points=[[0,0.5],[1,0.5]];portConstraint=eastwest;whiteSpace=wrap;html=1;" vertex="1" parent="BUFua6Qd4tEus71I5K5y-5">
          <mxGeometry y="78" width="180" height="26" as="geometry" />
        </mxCell>
        <mxCell id="BUFua6Qd4tEus71I5K5y-36" value="- private email: string" style="text;strokeColor=none;fillColor=none;align=left;verticalAlign=top;spacingLeft=4;spacingRight=4;overflow=hidden;rotatable=0;points=[[0,0.5],[1,0.5]];portConstraint=eastwest;whiteSpace=wrap;html=1;" vertex="1" parent="BUFua6Qd4tEus71I5K5y-5">
          <mxGeometry y="104" width="180" height="26" as="geometry" />
        </mxCell>
        <mxCell id="BUFua6Qd4tEus71I5K5y-7" value="" style="line;strokeWidth=1;fillColor=none;align=left;verticalAlign=middle;spacingTop=-1;spacingLeft=3;spacingRight=3;rotatable=0;labelPosition=right;points=[];portConstraint=eastwest;strokeColor=inherit;" vertex="1" parent="BUFua6Qd4tEus71I5K5y-5">
          <mxGeometry y="130" width="180" height="8" as="geometry" />
        </mxCell>
        <mxCell id="BUFua6Qd4tEus71I5K5y-8" value="+ public setCustomerDetails(data: {name: string, address: string, email: string, phoneNumber: string}): void" style="text;strokeColor=none;fillColor=none;align=left;verticalAlign=top;spacingLeft=4;spacingRight=4;overflow=hidden;rotatable=0;points=[[0,0.5],[1,0.5]];portConstraint=eastwest;whiteSpace=wrap;html=1;" vertex="1" parent="BUFua6Qd4tEus71I5K5y-5">
          <mxGeometry y="138" width="180" height="80" as="geometry" />
        </mxCell>
        <mxCell id="BUFua6Qd4tEus71I5K5y-34" value="- private updateCustomerDetails(data: {name: string, address: string, email: string, phoneNumber: string}): void" style="text;strokeColor=none;fillColor=none;align=left;verticalAlign=top;spacingLeft=4;spacingRight=4;overflow=hidden;rotatable=0;points=[[0,0.5],[1,0.5]];portConstraint=eastwest;whiteSpace=wrap;html=1;" vertex="1" parent="BUFua6Qd4tEus71I5K5y-5">
          <mxGeometry y="218" width="180" height="80" as="geometry" />
        </mxCell>
        <mxCell id="BUFua6Qd4tEus71I5K5y-33" value="+ public getCustomerDetailsData():{name: string, address: string, email: string, phoneNumber: string} " style="text;strokeColor=none;fillColor=none;align=left;verticalAlign=top;spacingLeft=4;spacingRight=4;overflow=hidden;rotatable=0;points=[[0,0.5],[1,0.5]];portConstraint=eastwest;whiteSpace=wrap;html=1;" vertex="1" parent="BUFua6Qd4tEus71I5K5y-5">
          <mxGeometry y="298" width="180" height="80" as="geometry" />
        </mxCell>
        <mxCell id="BUFua6Qd4tEus71I5K5y-13" style="edgeStyle=orthogonalEdgeStyle;rounded=0;orthogonalLoop=1;jettySize=auto;html=1;entryX=0.5;entryY=0;entryDx=0;entryDy=0;" edge="1" parent="1" source="BUFua6Qd4tEus71I5K5y-9" target="BUFua6Qd4tEus71I5K5y-1">
          <mxGeometry relative="1" as="geometry" />
        </mxCell>
        <mxCell id="BUFua6Qd4tEus71I5K5y-14" value="createCustomer(id)" style="edgeLabel;html=1;align=center;verticalAlign=middle;resizable=0;points=[];" connectable="0" vertex="1" parent="BUFua6Qd4tEus71I5K5y-13">
          <mxGeometry x="-0.046" relative="1" as="geometry">
            <mxPoint y="1" as="offset" />
          </mxGeometry>
        </mxCell>
        <mxCell id="BUFua6Qd4tEus71I5K5y-9" value="Reservation" style="swimlane;fontStyle=1;align=center;verticalAlign=top;childLayout=stackLayout;horizontal=1;startSize=26;horizontalStack=0;resizeParent=1;resizeParentMax=0;resizeLast=0;collapsible=1;marginBottom=0;whiteSpace=wrap;html=1;" vertex="1" parent="1">
          <mxGeometry x="50" y="20" width="220" height="164" as="geometry" />
        </mxCell>
        <mxCell id="BUFua6Qd4tEus71I5K5y-10" value="+ public reservationId: string" style="text;strokeColor=none;fillColor=none;align=left;verticalAlign=top;spacingLeft=4;spacingRight=4;overflow=hidden;rotatable=0;points=[[0,0.5],[1,0.5]];portConstraint=eastwest;whiteSpace=wrap;html=1;" vertex="1" parent="BUFua6Qd4tEus71I5K5y-9">
          <mxGeometry y="26" width="220" height="26" as="geometry" />
        </mxCell>
        <mxCell id="BUFua6Qd4tEus71I5K5y-19" value="+ public customerId: int" style="text;strokeColor=none;fillColor=none;align=left;verticalAlign=top;spacingLeft=4;spacingRight=4;overflow=hidden;rotatable=0;points=[[0,0.5],[1,0.5]];portConstraint=eastwest;whiteSpace=wrap;html=1;" vertex="1" parent="BUFua6Qd4tEus71I5K5y-9">
          <mxGeometry y="52" width="220" height="26" as="geometry" />
        </mxCell>
        <mxCell id="BUFua6Qd4tEus71I5K5y-20" value="+ public dateCreated: datetime" style="text;strokeColor=none;fillColor=none;align=left;verticalAlign=top;spacingLeft=4;spacingRight=4;overflow=hidden;rotatable=0;points=[[0,0.5],[1,0.5]];portConstraint=eastwest;whiteSpace=wrap;html=1;" vertex="1" parent="BUFua6Qd4tEus71I5K5y-9">
          <mxGeometry y="78" width="220" height="26" as="geometry" />
        </mxCell>
        <mxCell id="BUFua6Qd4tEus71I5K5y-21" value="+ public dateEffective: datetime" style="text;strokeColor=none;fillColor=none;align=left;verticalAlign=top;spacingLeft=4;spacingRight=4;overflow=hidden;rotatable=0;points=[[0,0.5],[1,0.5]];portConstraint=eastwest;whiteSpace=wrap;html=1;" vertex="1" parent="BUFua6Qd4tEus71I5K5y-9">
          <mxGeometry y="104" width="220" height="26" as="geometry" />
        </mxCell>
        <mxCell id="BUFua6Qd4tEus71I5K5y-11" value="" style="line;strokeWidth=1;fillColor=none;align=left;verticalAlign=middle;spacingTop=-1;spacingLeft=3;spacingRight=3;rotatable=0;labelPosition=right;points=[];portConstraint=eastwest;strokeColor=inherit;" vertex="1" parent="BUFua6Qd4tEus71I5K5y-9">
          <mxGeometry y="130" width="220" height="8" as="geometry" />
        </mxCell>
        <mxCell id="BUFua6Qd4tEus71I5K5y-12" value="+ public&amp;nbsp;createCustomer(id: int): void" style="text;strokeColor=none;fillColor=none;align=left;verticalAlign=top;spacingLeft=4;spacingRight=4;overflow=hidden;rotatable=0;points=[[0,0.5],[1,0.5]];portConstraint=eastwest;whiteSpace=wrap;html=1;" vertex="1" parent="BUFua6Qd4tEus71I5K5y-9">
          <mxGeometry y="138" width="220" height="26" as="geometry" />
        </mxCell>
        <mxCell id="BUFua6Qd4tEus71I5K5y-15" value="1..*" style="text;html=1;strokeColor=none;fillColor=none;align=center;verticalAlign=middle;whiteSpace=wrap;rounded=0;" vertex="1" parent="1">
          <mxGeometry x="130" y="184" width="30" height="24" as="geometry" />
        </mxCell>
        <mxCell id="BUFua6Qd4tEus71I5K5y-16" value="*" style="text;html=1;strokeColor=none;fillColor=none;align=center;verticalAlign=middle;whiteSpace=wrap;rounded=0;" vertex="1" parent="1">
          <mxGeometry x="130" y="396" width="30" height="24" as="geometry" />
        </mxCell>
        <mxCell id="BUFua6Qd4tEus71I5K5y-18" value="(a)" style="text;html=1;align=center;verticalAlign=middle;resizable=0;points=[];autosize=1;strokeColor=none;fillColor=none;" vertex="1" parent="1">
          <mxGeometry x="160" y="340" width="40" height="30" as="geometry" />
        </mxCell>
        <mxCell id="BUFua6Qd4tEus71I5K5y-24" style="edgeStyle=orthogonalEdgeStyle;rounded=0;orthogonalLoop=1;jettySize=auto;html=1;entryX=0;entryY=0.5;entryDx=0;entryDy=0;" edge="1" parent="1" source="BUFua6Qd4tEus71I5K5y-2" target="BUFua6Qd4tEus71I5K5y-6">
          <mxGeometry relative="1" as="geometry" />
        </mxCell>
        <mxCell id="BUFua6Qd4tEus71I5K5y-27" value="setCustomerDetails(data)" style="edgeLabel;html=1;align=center;verticalAlign=middle;resizable=0;points=[];" connectable="0" vertex="1" parent="BUFua6Qd4tEus71I5K5y-24">
          <mxGeometry x="-0.0778" y="-1" relative="1" as="geometry">
            <mxPoint x="7" y="12" as="offset" />
          </mxGeometry>
        </mxCell>
        <mxCell id="BUFua6Qd4tEus71I5K5y-25" value="" style="endArrow=classic;dashed=1;html=1;rounded=0;endFill=1;entryX=0.5;entryY=0;entryDx=0;entryDy=0;exitX=1;exitY=1;exitDx=0;exitDy=0;" edge="1" parent="1" source="BUFua6Qd4tEus71I5K5y-9" target="BUFua6Qd4tEus71I5K5y-5">
          <mxGeometry width="50" height="50" relative="1" as="geometry">
            <mxPoint x="340" y="400" as="sourcePoint" />
            <mxPoint x="390" y="350" as="targetPoint" />
          </mxGeometry>
        </mxCell>
        <mxCell id="BUFua6Qd4tEus71I5K5y-26" value="&lt;div&gt;Reservation object knows about&amp;nbsp;&lt;/div&gt;&lt;div&gt;CustomerDescription via the Customer&lt;/div&gt;" style="text;html=1;align=center;verticalAlign=middle;resizable=0;points=[];autosize=1;strokeColor=none;fillColor=none;" vertex="1" parent="1">
          <mxGeometry x="355" y="208" width="240" height="40" as="geometry" />
        </mxCell>
        <mxCell id="BUFua6Qd4tEus71I5K5y-40" value="1" style="text;html=1;align=center;verticalAlign=middle;resizable=0;points=[];autosize=1;strokeColor=none;fillColor=none;" vertex="1" parent="1">
          <mxGeometry x="270" y="430" width="30" height="30" as="geometry" />
        </mxCell>
        <mxCell id="BUFua6Qd4tEus71I5K5y-41" value="1" style="text;html=1;align=center;verticalAlign=middle;resizable=0;points=[];autosize=1;strokeColor=none;fillColor=none;" vertex="1" parent="1">
          <mxGeometry x="470" y="430" width="30" height="30" as="geometry" />
        </mxCell>
      </root>
    </mxGraphModel>
  </diagram>
</mxfile>
